<svg width="2913" height="858" viewBox="0 0 2913 858" fill="none" xmlns="http://www.w3.org/2000/svg">
<path d="M225.426 668H32.3438V166.182H223.466C275.085 166.182 319.68 176.228 357.251 196.32C394.986 216.249 424.063 244.999 444.482 282.57C465.064 319.978 475.355 364.818 475.355 417.091C475.355 469.364 465.146 514.286 444.727 551.857C424.308 589.264 395.394 618.014 357.987 638.107C320.579 658.036 276.392 668 225.426 668ZM168.58 552.347H220.526C245.355 552.347 266.509 548.344 283.988 540.34C301.63 532.336 315.025 518.533 324.173 498.93C333.484 479.328 338.139 452.048 338.139 417.091C338.139 382.134 333.402 354.854 323.928 335.251C314.616 315.649 300.895 301.846 282.763 293.842C264.794 285.837 242.741 281.835 216.605 281.835H168.58V552.347ZM540.349 668V291.636H675.605V668H540.349ZM607.977 252.432C589.681 252.432 573.999 246.388 560.931 234.3C547.863 222.212 541.329 207.673 541.329 190.685C541.329 173.696 547.863 159.158 560.931 147.07C573.999 134.982 589.681 128.938 607.977 128.938C626.436 128.938 642.117 134.982 655.022 147.07C668.09 159.158 674.624 173.696 674.624 190.685C674.624 207.673 668.09 222.212 655.022 234.3C642.117 246.388 626.436 252.432 607.977 252.432ZM1088.54 414.151H964.064C963.411 406.473 960.716 399.857 955.978 394.303C951.241 388.749 945.115 384.502 937.601 381.562C930.25 378.458 922.083 376.906 913.098 376.906C901.5 376.906 891.536 379.03 883.205 383.277C874.874 387.524 870.79 393.568 870.953 401.409C870.79 406.963 873.159 412.109 878.059 416.846C883.123 421.583 892.843 425.259 907.218 427.872L983.667 441.594C1022.22 448.618 1050.89 460.461 1069.67 477.123C1088.62 493.621 1098.18 515.756 1098.34 543.526C1098.18 570.315 1090.17 593.593 1074.33 613.359C1058.65 632.961 1037.16 648.153 1009.88 658.934C982.768 669.552 951.813 674.861 917.019 674.861C859.519 674.861 814.515 663.099 782.008 639.577C749.664 616.054 731.614 585.017 727.857 546.466H862.132C863.929 558.391 869.81 567.62 879.775 574.154C889.902 580.525 902.644 583.71 917.999 583.71C930.414 583.71 940.623 581.587 948.628 577.339C956.795 573.092 960.961 567.048 961.124 559.207C960.961 552.02 957.367 546.303 950.343 542.055C943.482 537.808 932.701 534.378 917.999 531.764L851.351 520.003C812.963 513.305 784.213 500.564 765.101 481.778C745.989 462.993 736.515 438.817 736.678 409.25C736.515 383.114 743.375 360.979 757.26 342.847C771.309 324.552 791.319 310.667 817.292 301.192C843.429 291.555 874.384 286.736 910.158 286.736C964.554 286.736 1007.43 298.007 1038.8 320.55C1070.32 343.092 1086.91 374.293 1088.54 414.151ZM1616.7 354.364H1478.5C1477.52 342.929 1474.91 332.556 1470.66 323.245C1466.58 313.934 1460.86 305.93 1453.51 299.232C1446.32 292.371 1437.58 287.144 1427.29 283.55C1417 279.793 1405.32 277.915 1392.25 277.915C1369.38 277.915 1350.02 283.469 1334.18 294.577C1318.5 305.685 1306.57 321.611 1298.41 342.357C1290.4 363.103 1286.4 388.014 1286.4 417.091C1286.4 447.801 1290.48 473.529 1298.65 494.275C1306.98 514.857 1318.99 530.376 1334.67 540.83C1350.35 551.121 1369.22 556.267 1391.27 556.267C1403.85 556.267 1415.12 554.715 1425.09 551.612C1435.05 548.344 1443.71 543.689 1451.06 537.645C1458.41 531.601 1464.37 524.332 1468.95 515.837C1473.68 507.18 1476.87 497.46 1478.5 486.679L1616.7 487.659C1615.06 508.895 1609.1 530.539 1598.81 552.592C1588.52 574.481 1573.9 594.737 1554.95 613.359C1536.16 631.817 1512.89 646.683 1485.12 657.954C1457.35 669.225 1425.09 674.861 1388.33 674.861C1342.27 674.861 1300.94 664.978 1264.35 645.212C1227.92 625.447 1199.09 596.37 1177.85 557.982C1156.78 519.594 1146.24 472.631 1146.24 417.091C1146.24 361.224 1157.02 314.179 1178.59 275.955C1200.15 237.567 1229.23 208.572 1265.82 188.969C1302.41 169.204 1343.25 159.321 1388.33 159.321C1420.02 159.321 1449.18 163.65 1475.81 172.307C1502.43 180.965 1525.79 193.625 1545.88 210.287C1565.98 226.785 1582.15 247.123 1594.4 271.299C1606.65 295.475 1614.08 323.163 1616.7 354.364ZM1646.47 668.01C1646.42 668.01 1646.36 667.998 1646.32 667.975C1646.28 667.951 1646.25 667.918 1646.23 667.876C1646.2 667.834 1646.19 667.785 1646.19 667.729C1646.19 667.673 1646.2 667.624 1646.23 667.582C1646.25 667.539 1646.28 667.506 1646.32 667.483C1646.36 667.459 1646.42 667.447 1646.47 667.447C1646.53 667.447 1646.58 667.459 1646.63 667.483C1646.67 667.506 1646.7 667.539 1646.72 667.582C1646.75 667.624 1646.76 667.673 1646.76 667.729C1646.76 667.785 1646.75 667.834 1646.72 667.876C1646.7 667.918 1646.67 667.951 1646.63 667.975C1646.58 667.998 1646.53 668.01 1646.47 668.01ZM1646.48 667.865C1646.49 667.865 1646.51 667.859 1646.52 667.848C1646.53 667.837 1646.54 667.821 1646.55 667.801C1646.55 667.78 1646.56 667.756 1646.56 667.727C1646.56 667.699 1646.55 667.674 1646.55 667.654C1646.54 667.633 1646.53 667.617 1646.52 667.606C1646.51 667.595 1646.49 667.589 1646.48 667.589C1646.46 667.589 1646.44 667.595 1646.43 667.606C1646.42 667.617 1646.41 667.633 1646.4 667.654C1646.4 667.674 1646.39 667.699 1646.39 667.727C1646.39 667.756 1646.4 667.78 1646.4 667.801C1646.41 667.821 1646.42 667.837 1646.43 667.848C1646.44 667.859 1646.46 667.865 1646.48 667.865ZM2274.79 816.977C2237.06 816.977 2204.72 811.587 2177.76 800.805C2150.97 790.188 2130.15 775.486 2115.28 756.7C2100.58 738.078 2092.33 716.679 2090.53 692.503H2220.89C2222.2 700.507 2225.46 706.96 2230.69 711.86C2235.92 716.761 2242.61 720.273 2250.78 722.396C2259.11 724.683 2268.42 725.827 2278.72 725.827C2296.19 725.827 2310.65 721.58 2322.09 713.085C2333.68 704.591 2339.48 689.236 2339.48 667.02V603.312H2335.56C2330.66 616.054 2323.15 626.917 2313.02 635.901C2302.89 644.722 2290.72 651.501 2276.51 656.239C2262.3 660.812 2246.7 663.099 2229.71 663.099C2202.92 663.099 2178.25 656.892 2155.71 644.477C2133.33 632.062 2115.36 612.379 2101.8 585.425C2088.41 558.472 2081.71 523.27 2081.71 479.818C2081.71 434.406 2088.74 397.489 2102.78 369.065C2117 340.642 2135.29 319.815 2157.67 306.583C2180.21 293.352 2203.9 286.736 2228.73 286.736C2247.35 286.736 2263.69 290.003 2277.74 296.537C2291.78 302.908 2303.54 311.484 2313.02 322.265C2322.49 332.883 2329.68 344.562 2334.58 357.304H2337.52V291.636H2472.78V667.02C2472.78 698.874 2464.53 725.908 2448.03 748.124C2431.69 770.504 2408.66 787.574 2378.93 799.335C2349.2 811.097 2314.49 816.977 2274.79 816.977ZM2279.7 567.048C2292.11 567.048 2302.73 563.618 2311.55 556.757C2320.53 549.733 2327.39 539.768 2332.13 526.864C2337.03 513.795 2339.48 498.114 2339.48 479.818C2339.48 461.196 2337.03 445.269 2332.13 432.038C2327.39 418.643 2320.53 408.433 2311.55 401.409C2302.73 394.222 2292.11 390.628 2279.7 390.628C2267.28 390.628 2256.66 394.222 2247.84 401.409C2239.18 408.433 2232.49 418.643 2227.75 432.038C2223.18 445.269 2220.89 461.196 2220.89 479.818C2220.89 498.44 2223.18 514.286 2227.75 527.354C2232.49 540.259 2239.18 550.141 2247.84 557.002C2256.66 563.7 2267.28 567.048 2279.7 567.048ZM2885.59 414.151H2761.12C2760.46 406.473 2757.77 399.857 2753.03 394.303C2748.29 388.749 2742.17 384.502 2734.65 381.562C2727.3 378.458 2719.13 376.906 2710.15 376.906C2698.55 376.906 2688.59 379.03 2680.26 383.277C2671.92 387.524 2667.84 393.568 2668 401.409C2667.84 406.963 2670.21 412.109 2675.11 416.846C2680.17 421.583 2689.89 425.259 2704.27 427.872L2780.72 441.594C2819.27 448.618 2847.94 460.461 2866.72 477.123C2885.67 493.621 2895.23 515.756 2895.39 543.526C2895.23 570.315 2887.22 593.593 2871.38 613.359C2855.7 632.961 2834.22 648.153 2806.94 658.934C2779.82 669.552 2748.86 674.861 2714.07 674.861C2656.57 674.861 2611.57 663.099 2579.06 639.577C2546.72 616.054 2528.66 585.017 2524.91 546.466H2659.18C2660.98 558.391 2666.86 567.62 2676.83 574.154C2686.95 580.525 2699.69 583.71 2715.05 583.71C2727.46 583.71 2737.67 581.587 2745.68 577.339C2753.85 573.092 2758.01 567.048 2758.17 559.207C2758.01 552.02 2754.42 546.303 2747.39 542.055C2740.53 537.808 2729.75 534.378 2715.05 531.764L2648.4 520.003C2610.01 513.305 2581.26 500.564 2562.15 481.778C2543.04 462.993 2533.57 438.817 2533.73 409.25C2533.57 383.114 2540.43 360.979 2554.31 342.847C2568.36 324.552 2588.37 310.667 2614.34 301.192C2640.48 291.555 2671.43 286.736 2707.21 286.736C2761.61 286.736 2804.49 298.007 2835.85 320.55C2867.38 343.092 2883.96 374.293 2885.59 414.151Z" fill="white"/>
<path d="M1855.5 259L2038 366.5V581.5L1855.5 689L1673 581.5V366.5L1855.5 259ZM1855.5 532.636C1887.33 532.636 1913.13 506.385 1913.13 474C1913.13 441.615 1887.33 415.364 1855.5 415.364C1823.67 415.364 1797.87 441.615 1797.87 474C1797.87 506.385 1823.67 532.636 1855.5 532.636Z" fill="#00FF95"/>
</svg>
